<svg width="32" height="32" viewBox="0 0 32 32" fill="none" xmlns="http://www.w3.org/2000/svg">
    <path d="M22.6668 28C23.0204 28 23.3595 27.8596 23.6096 27.6095C23.8596 27.3595 24.0001 27.0203 24.0001 26.6667V19.5334C24.0001 18.924 24.4214 18.408 24.9694 18.1454C26.1041 17.6041 27.011 16.6794 27.5303 15.5346C28.0495 14.3897 28.1476 13.0982 27.8073 11.888C27.467 10.6778 26.7102 9.62671 25.6704 8.92023C24.6305 8.21375 23.3746 7.89729 22.1241 8.0267C21.6091 6.82965 20.7546 5.80977 19.6662 5.09315C18.5778 4.37654 17.3032 3.99463 16.0001 3.99463C14.697 3.99463 13.4224 4.37654 12.334 5.09315C11.2456 5.80977 10.3911 6.82965 9.87611 8.0267C8.62622 7.8982 7.37109 8.21511 6.33202 8.92155C5.29295 9.628 4.53666 10.6786 4.19649 11.8882C3.85632 13.0977 3.95412 14.3885 4.47265 15.533C4.99117 16.6775 5.89713 17.6022 7.03078 18.144C7.57878 18.408 8.00011 18.924 8.00011 19.532V26.6667C8.00011 27.0203 8.14059 27.3595 8.39063 27.6095C8.64068 27.8596 8.97982 28 9.33344 28H22.6668Z" stroke="#155DFC" stroke-width="2.66667" stroke-linecap="round" stroke-linejoin="round"/>
    <path d="M8 22.6666H24" stroke="#155DFC" stroke-width="2.66667" stroke-linecap="round" stroke-linejoin="round"/>
</svg>
