<svg width="128" height="32" viewBox="0 0 128 32" fill="none" xmlns="http://www.w3.org/2000/svg">
    <path d="M22.6667 28C23.0203 28 23.3594 27.8595 23.6095 27.6095C23.8595 27.3594 24 27.0203 24 26.6667V19.5333C24 18.924 24.4213 18.408 24.9693 18.1453C26.104 17.6041 27.0109 16.6794 27.5302 15.5345C28.0494 14.3896 28.1475 13.0981 27.8072 11.8879C27.4669 10.6778 26.7101 9.62667 25.6702 8.92019C24.6304 8.21372 23.3744 7.89726 22.124 8.02667C21.609 6.82961 20.7545 5.80973 19.6661 5.09312C18.5777 4.37651 17.3031 3.99459 16 3.99459C14.6969 3.99459 13.4223 4.37651 12.3339 5.09312C11.2455 5.80973 10.391 6.82961 9.87599 8.02667C8.6261 7.89816 7.37097 8.21507 6.3319 8.92152C5.29283 9.62796 4.53654 10.6786 4.19637 11.8881C3.8562 13.0977 3.954 14.3885 4.47253 15.533C4.99105 16.6775 5.897 17.6022 7.03065 18.144C7.57865 18.408 7.99999 18.924 7.99999 19.532V26.6667C7.99999 27.0203 8.14046 27.3594 8.39051 27.6095C8.64056 27.8595 8.9797 28 9.33332 28H22.6667Z" stroke="#155DFC" stroke-width="2.66667" stroke-linecap="round" stroke-linejoin="round"/>
    <path d="M8 22.6667H24" stroke="#155DFC" stroke-width="2.66667" stroke-linecap="round" stroke-linejoin="round"/>
    <path d="M41.4347 23V8.45455H46.8892C48.0066 8.45455 48.9441 8.64867 49.7017 9.03693C50.464 9.42519 51.0393 9.9697 51.4276 10.6705C51.8205 11.3665 52.017 12.1785 52.017 13.1065C52.017 14.0393 51.8182 14.849 51.4205 15.5355C51.0275 16.2173 50.4474 16.7453 49.6804 17.1193C48.9134 17.4886 47.9711 17.6733 46.8537 17.6733H42.9688V15.4858H46.4986C47.152 15.4858 47.687 15.3958 48.1037 15.2159C48.5204 15.0312 48.8281 14.7637 49.027 14.4134C49.2306 14.0582 49.3324 13.6226 49.3324 13.1065C49.3324 12.5904 49.2306 12.1501 49.027 11.7855C48.8234 11.4162 48.5133 11.1368 48.0966 10.9474C47.6799 10.7533 47.1425 10.6562 46.4844 10.6562H44.0696V23H41.4347ZM48.9489 16.4091L52.5497 23H49.6094L46.0724 16.4091H48.9489ZM58.5529 23.2131C57.4592 23.2131 56.5146 22.9858 55.7191 22.5312C54.9284 22.072 54.32 21.4233 53.8938 20.5852C53.4677 19.7424 53.2546 18.7505 53.2546 17.6094C53.2546 16.4872 53.4677 15.5024 53.8938 14.6548C54.3247 13.8026 54.926 13.1397 55.6978 12.6662C56.4696 12.188 57.3763 11.9489 58.418 11.9489C59.0903 11.9489 59.7248 12.0578 60.3214 12.2756C60.9227 12.4886 61.453 12.8201 61.9123 13.2699C62.3763 13.7197 62.7409 14.2926 63.006 14.9886C63.2712 15.6799 63.4038 16.5038 63.4038 17.4602V18.2486H54.462V16.5156H60.9393C60.9345 16.0232 60.828 15.5852 60.6197 15.2017C60.4113 14.8134 60.1201 14.508 59.7461 14.2855C59.3768 14.063 58.9459 13.9517 58.4535 13.9517C57.9279 13.9517 57.4663 14.0795 57.0685 14.3352C56.6708 14.5862 56.3607 14.9176 56.1381 15.3295C55.9203 15.7367 55.8091 16.1842 55.8043 16.6719V18.1847C55.8043 18.8191 55.9203 19.3636 56.1523 19.8182C56.3844 20.268 56.7087 20.6136 57.1254 20.8551C57.542 21.0919 58.0297 21.2102 58.5884 21.2102C58.9625 21.2102 59.301 21.1581 59.604 21.054C59.9071 20.9451 60.1699 20.7865 60.3924 20.5781C60.6149 20.3698 60.783 20.1117 60.8967 19.804L63.2972 20.0739C63.1457 20.7083 62.8569 21.2623 62.4308 21.7358C62.0094 22.2045 61.4696 22.5691 60.8114 22.8295C60.1533 23.0852 59.4004 23.2131 58.5529 23.2131ZM69.8881 23.2131C68.7991 23.2131 67.864 22.974 67.0827 22.4957C66.3062 22.0175 65.7073 21.357 65.2859 20.5142C64.8692 19.6667 64.6609 18.6913 64.6609 17.5881C64.6609 16.4801 64.8739 15.5024 65.3001 14.6548C65.7262 13.8026 66.3275 13.1397 67.104 12.6662C67.8853 12.188 68.8086 11.9489 69.8739 11.9489C70.7594 11.9489 71.543 12.1122 72.2248 12.4389C72.9113 12.7609 73.4582 13.2178 73.8654 13.8097C74.2726 14.3968 74.5046 15.0833 74.5614 15.8693H72.104C72.0046 15.3437 71.7679 14.9058 71.3938 14.5554C71.0245 14.2003 70.5297 14.0227 69.9094 14.0227C69.3839 14.0227 68.9222 14.1648 68.5245 14.4489C68.1268 14.7282 67.8166 15.1307 67.5941 15.6562C67.3763 16.1818 67.2674 16.8116 67.2674 17.5455C67.2674 18.2888 67.3763 18.928 67.5941 19.4631C67.8119 19.9934 68.1173 20.4029 68.5103 20.6918C68.908 20.9759 69.3744 21.1179 69.9094 21.1179C70.2882 21.1179 70.6268 21.0469 70.9251 20.9048C71.2281 20.758 71.4814 20.5473 71.685 20.2727C71.8886 19.9981 72.0283 19.6643 72.104 19.2713H74.5614C74.4999 20.0431 74.2726 20.7273 73.8796 21.3239C73.4866 21.9157 72.9516 22.3797 72.2745 22.7159C71.5974 23.0473 70.802 23.2131 69.8881 23.2131ZM81.0529 23.2131C79.9592 23.2131 79.0146 22.9858 78.2191 22.5312C77.4284 22.072 76.82 21.4233 76.3938 20.5852C75.9677 19.7424 75.7546 18.7505 75.7546 17.6094C75.7546 16.4872 75.9677 15.5024 76.3938 14.6548C76.8247 13.8026 77.426 13.1397 78.1978 12.6662C78.9696 12.188 79.8763 11.9489 80.918 11.9489C81.5903 11.9489 82.2248 12.0578 82.8214 12.2756C83.4227 12.4886 83.953 12.8201 84.4123 13.2699C84.8763 13.7197 85.2409 14.2926 85.506 14.9886C85.7712 15.6799 85.9038 16.5038 85.9038 17.4602V18.2486H76.962V16.5156H83.4393C83.4345 16.0232 83.328 15.5852 83.1197 15.2017C82.9113 14.8134 82.6201 14.508 82.2461 14.2855C81.8768 14.063 81.4459 13.9517 80.9535 13.9517C80.4279 13.9517 79.9663 14.0795 79.5685 14.3352C79.1708 14.5862 78.8607 14.9176 78.6381 15.3295C78.4203 15.7367 78.3091 16.1842 78.3043 16.6719V18.1847C78.3043 18.8191 78.4203 19.3636 78.6523 19.8182C78.8844 20.268 79.2087 20.6136 79.6254 20.8551C80.042 21.0919 80.5297 21.2102 81.0884 21.2102C81.4625 21.2102 81.801 21.1581 82.104 21.054C82.4071 20.9451 82.6699 20.7865 82.8924 20.5781C83.1149 20.3698 83.283 20.1117 83.3967 19.804L85.7972 20.0739C85.6457 20.7083 85.3569 21.2623 84.9308 21.7358C84.5094 22.2045 83.9696 22.5691 83.3114 22.8295C82.6533 23.0852 81.9004 23.2131 81.0529 23.2131ZM87.6296 27.0909V12.0909H90.158V13.8949H90.3072C90.4397 13.6297 90.6268 13.348 90.8683 13.0497C91.1097 12.7467 91.4364 12.4886 91.8484 12.2756C92.2603 12.0578 92.7859 11.9489 93.4251 11.9489C94.2679 11.9489 95.0278 12.1643 95.7049 12.5952C96.3867 13.0213 96.9265 13.6534 97.3242 14.4915C97.7267 15.3248 97.9279 16.3475 97.9279 17.5597C97.9279 18.7576 97.7314 19.7756 97.3384 20.6136C96.9454 21.4517 96.4104 22.0909 95.7333 22.5312C95.0562 22.9716 94.2892 23.1918 93.4322 23.1918C92.8072 23.1918 92.2887 23.0876 91.8768 22.8793C91.4648 22.6709 91.1334 22.42 90.8825 22.1264C90.6362 21.8281 90.4445 21.5464 90.3072 21.2812H90.2006V27.0909H87.6296ZM90.1509 17.5455C90.1509 18.2509 90.2504 18.8688 90.4492 19.3991C90.6528 19.9295 90.944 20.3437 91.3228 20.642C91.7063 20.9356 92.1703 21.0824 92.7148 21.0824C93.283 21.0824 93.7589 20.9309 94.1424 20.6278C94.5259 20.3201 94.8147 19.901 95.0089 19.3707C95.2077 18.8357 95.3072 18.2273 95.3072 17.5455C95.3072 16.8684 95.2101 16.267 95.016 15.7415C94.8219 15.2159 94.533 14.804 94.1495 14.5057C93.766 14.2074 93.2878 14.0582 92.7148 14.0582C92.1656 14.0582 91.6992 14.2027 91.3157 14.4915C90.9322 14.7803 90.641 15.1851 90.4421 15.706C90.248 16.2268 90.1509 16.84 90.1509 17.5455ZM105.128 12.0909V14.0795H98.8565V12.0909H105.128ZM100.405 9.47727H102.976V19.7188C102.976 20.0644 103.028 20.3295 103.132 20.5142C103.241 20.6941 103.383 20.8172 103.558 20.8835C103.733 20.9498 103.928 20.983 104.141 20.983C104.302 20.983 104.448 20.9711 104.581 20.9474C104.718 20.9238 104.822 20.9025 104.893 20.8835L105.327 22.8935C105.189 22.9408 104.993 22.9929 104.737 23.0497C104.486 23.1065 104.179 23.1397 103.814 23.1491C103.17 23.1681 102.59 23.071 102.074 22.858C101.558 22.6402 101.148 22.304 100.845 21.8494C100.547 21.3949 100.4 20.8267 100.405 20.1449V9.47727ZM111.541 23.2131C110.447 23.2131 109.503 22.9858 108.707 22.5312C107.917 22.072 107.308 21.4233 106.882 20.5852C106.456 19.7424 106.243 18.7505 106.243 17.6094C106.243 16.4872 106.456 15.5024 106.882 14.6548C107.313 13.8026 107.914 13.1397 108.686 12.6662C109.458 12.188 110.365 11.9489 111.406 11.9489C112.079 11.9489 112.713 12.0578 113.31 12.2756C113.911 12.4886 114.441 12.8201 114.901 13.2699C115.365 13.7197 115.729 14.2926 115.994 14.9886C116.259 15.6799 116.392 16.5038 116.392 17.4602V18.2486H107.45V16.5156H113.928C113.923 16.0232 113.816 15.5852 113.608 15.2017C113.4 14.8134 113.108 14.508 112.734 14.2855C112.365 14.063 111.934 13.9517 111.442 13.9517C110.916 13.9517 110.455 14.0795 110.057 14.3352C109.659 14.5862 109.349 14.9176 109.126 15.3295C108.909 15.7367 108.797 16.1842 108.793 16.6719V18.1847C108.793 18.8191 108.909 19.3636 109.141 19.8182C109.373 20.268 109.697 20.6136 110.114 20.8551C110.53 21.0919 111.018 21.2102 111.577 21.2102C111.951 21.2102 112.289 21.1581 112.592 21.054C112.895 20.9451 113.158 20.7865 113.381 20.5781C113.603 20.3698 113.771 20.1117 113.885 19.804L116.286 20.0739C116.134 20.7083 115.845 21.2623 115.419 21.7358C114.998 22.2045 114.458 22.5691 113.8 22.8295C113.142 23.0852 112.389 23.2131 111.541 23.2131ZM120.689 16.608V23H118.118V12.0909H120.575V13.9446H120.703C120.954 13.3338 121.354 12.8485 121.903 12.4886C122.457 12.1288 123.142 11.9489 123.956 11.9489C124.709 11.9489 125.365 12.1098 125.923 12.4318C126.487 12.7538 126.922 13.2202 127.23 13.831C127.543 14.4418 127.696 15.1828 127.692 16.054V23H125.121V16.4517C125.121 15.7225 124.931 15.152 124.553 14.7401C124.179 14.3281 123.66 14.1222 122.997 14.1222C122.547 14.1222 122.147 14.2216 121.797 14.4205C121.451 14.6146 121.179 14.8963 120.98 15.2656C120.786 15.6349 120.689 16.0824 120.689 16.608Z" fill="#101828"/>
</svg>